<svg xmlns="http://www.w3.org/2000/svg" viewBox="0 0 203.07 168.75"><defs><style>.cls-1{fill:#fff;}</style></defs><g id="Layer_2" data-name="Layer 2"><g id="OBJECTS"><path class="cls-1" d="M202.84,161.31a91.53,91.53,0,0,0-27.64-45.06c.06-.19.1-.39.15-.59l.21-.77c.13-.52.24-1,.34-1.58,0-.24.09-.48.13-.73.1-.62.18-1.25.24-1.88,0-.17,0-.33,0-.49.07-.83.11-1.67.11-2.53s0-1.92-.1-2.93c-.91-17.63-9.8-42.21-23.19-63.73-7.68-12.33-28.07-41-51.6-41l-.44,0C77.75.37,57.56,28.77,49.93,41c-13.4,21.54-22.3,46.15-23.19,63.79-.06,1-.1,1.94-.1,2.87s0,1.67.11,2.49c0,.23.05.44.07.66.06.57.12,1.14.21,1.7,0,.29.11.59.16.88.09.48.2,1,.31,1.42.07.3.15.59.23.88s.09.36.14.54A91.66,91.66,0,0,0,.21,161.36l-.09.42,0,.13V162c0,.14,0,.27-.06.4v.23c0,.11,0,.21,0,.32A5.77,5.77,0,0,0,.9,166h0c.11.16.21.32.33.47h0a5.88,5.88,0,0,0,3.1,2l.07,0h.06l.52.1H5l.19,0h0l.6,0H197.23a6.07,6.07,0,0,0,1.42-.18h.06a5.85,5.85,0,0,0,4.36-5.65A5.68,5.68,0,0,0,202.84,161.31ZM61.61,47.29C75.7,25.66,91.37,11.68,101.54,11.68h.18c10.16.16,25.73,14.09,39.74,35.6S164.75,93,164.75,107.68a15.76,15.76,0,0,1-1.69,7.53,2.07,2.07,0,0,1-.49.5h0a2.84,2.84,0,0,1-.34.22.18.18,0,0,1-.07,0l-.32.18-.21.11a22.51,22.51,0,0,1-2.37,1,33.15,33.15,0,0,0,.37-4.48c0-.23,0-.46,0-.7,0-24.49-25.95-37.11-58-37.11s-58,12.62-58,37.11c0,.24,0,.47,0,.7a34.49,34.49,0,0,0,.39,4.57,22.63,22.63,0,0,1-2.56-1l-.13-.06-.29-.16a3.37,3.37,0,0,1-.32-.19l-.16-.1a2.45,2.45,0,0,1-.29-.23l-.09-.07a1.66,1.66,0,0,1-.25-.3,15.76,15.76,0,0,1-1.69-7.53C38.32,93,47.68,68.69,61.61,47.29Zm53,51.24a3.15,3.15,0,1,1,0-6.29h9.72a3.15,3.15,0,0,1,3.15,3.15v23.7a3.14,3.14,0,0,1-3.15,3.14h-9.72a3.14,3.14,0,1,1,0-6.28h6.58V98.53Zm-4.48-8L99,125.79a3.14,3.14,0,1,1-6-1.89l11.08-35.2a3.14,3.14,0,1,1,6,1.88ZM88.52,116a3.14,3.14,0,1,1,0,6.28H78.8a3.13,3.13,0,0,1-3.14-3.14V95.39a3.14,3.14,0,0,1,3.14-3.15h9.72a3.15,3.15,0,0,1,0,6.29H81.94V116ZM13.77,157.07a80.6,80.6,0,0,1,20.94-31.23,31.5,31.5,0,0,0,7.18,3.09h0c1.62.51,3.26,1,4.86,1.38l2.69.73h.07c16,6.68,37.72,4.51,48.1,17.9a5.33,5.33,0,0,0,8.35.09c10.6-12.83,32.29-11.32,48.2-18.12l0-.05,2.13-.57c3.79-1,7.86-2.12,11.23-4l.09,0,.72-.41a80.6,80.6,0,0,1,20.94,31.23Z"/></g></g></svg>